# xmcd CD database file
#
# Track frame offsets:
#	150
#	32085
#	60877
#	78423
#	101140
#	134993
#	171737
#	209027
#	277693
#
# Disc length: 4118 seconds
#
# Revision: 0
# Processed by: cddbd v1.5.1PL0 Copyright (c) Steve Scherf et al.
# Submitted via: CDex 1.51
#
DISCID=86101409
DTITLE=Roberto Laneri and Claudio Ricciardi - Inside Notes
DYEAR=2001
DGENRE=Jazz
TTITLE0=From This Side
TTITLE1=Brain Massage 2
TTITLE2=Brain Rhythm 1
TTITLE3=Colored Rain (Blu Version)
TTITLE4=Alba Uterina
TTITLE5=Organum
TTITLE6=Undifluus
TTITLE7=The Tail of the Tiger
TTITLE8=To the Other Side
EXTD=YEAR: 2001
EXTT0=
EXTT1=
EXTT2=
EXTT3=
EXTT4=
EXTT5=
EXTT6=
EXTT7=
EXTT8=
PLAYORDER=
